<svg id="Layer_1" data-name="Layer 1" xmlns="http://www.w3.org/2000/svg" viewBox="0 0 401.54 75"><defs><style>.cls-1{fill:#010101;}.cls-2{fill:#48ada6;}.cls-3{fill:#e9d362;}.cls-4{fill:#f3785f;}.cls-5{fill:#bc2a66;}.cls-6{fill:#231f20;}</style></defs><title>Untitled-1</title><rect class="cls-1" width="75" height="75"/><polygon class="cls-2" points="3 72 3 3 13.5 3 13.5 51 18 51 18 72 3 72"/><polygon class="cls-3" points="21 72 21 51 25.5 51 25.5 3 31.5 3 31.5 51 36 51 36 72 21 72"/><polygon class="cls-4" points="39 72 39 51 43.5 51 43.5 3 49.5 3 49.5 51 54 51 54 72 39 72"/><polygon class="cls-5" points="72 72 57 72 57 51 61.5 51 61.5 3 72 3 72 72"/><path class="cls-6" d="M129.23,47.07c-1.82,7.21-7.5,12.43-16.06,12.43-9.56,0-18.53-7-18.53-21s9-21,18.53-21c8.56,0,14.25,5.22,16.06,12.43l-5,1.47c-1.87-5.75-5.69-9-11.08-9-7.56,0-13.19,5.45-13.19,16.06s5.63,16.06,13.19,16.06c5.39,0,9.2-3.22,11.08-9Z"/><path class="cls-6" d="M158,59h-3.87l-0.82-4.16a10.71,10.71,0,0,1-9.26,4.63c-4.92,0-9.15-2.64-9.15-9s5.28-9.67,13.37-9.67h4.81V39.57c0-4.57-2.87-6.1-6.45-6.1a5.93,5.93,0,0,0-6.16,4.63l-4.34-1c0.82-5,4.92-8.09,10.49-8.09C153.15,29,158,32.3,158,40.15V59Zm-13.19-4c3.81,0,8.27-2.35,8.27-9v-0.7h-5.28c-5,0-7.86,1.88-7.86,5.22C140,53.34,141.72,55,144.82,55Z"/><path class="cls-6" d="M178.77,29c3.75,0,7.62,2.29,8.62,4V17.52h4.92V59h-4.92V55.39c-1.41,2.17-5,4.1-8.62,4.1-8.68,0-13.13-6.39-13.13-15.24S170.09,29,178.77,29Zm0.47,26c5.39,0,8.56-4.46,8.56-10.79s-3.17-10.79-8.56-10.79c-5.22,0-8.56,4.46-8.56,10.79S174,55,179.24,55Z"/><path class="cls-6" d="M226.84,45.31H205.15c0.29,5.45,3,9.73,8.33,9.73,4.34,0,6.57-2,8.21-5.63L226,51.29c-2.76,5.75-6.45,8.21-12.55,8.21-9,0-13.37-7.33-13.37-15.24S204.5,29,213.47,29c8.73,0,13.37,6.68,13.37,14v2.29Zm-21.4-4.46h16.24c-0.88-4.22-3.46-7.39-8.21-7.39C208.9,33.47,206.32,36.58,205.44,40.86Z"/><path class="cls-6" d="M258.67,59h-4.92V39.51c0-4-1.82-6-5.1-6-4.4,0-8.44,5-8.44,13.19V59h-4.92V29.48h4.92v5.45A11,11,0,0,1,250,29c5.39,0,8.68,3.34,8.68,9.2V59Z"/><path class="cls-6" d="M292,51.35c-2.4,5.51-6.27,8.15-12.37,8.15-9,0-13.42-7.33-13.42-15.24S270.57,29,279.6,29c6.1,0,10,2.64,12.37,8.15l-4.28,1.76c-1.52-3.58-4-5.45-8.09-5.45-5.75,0-8.38,4.87-8.38,10.79S273.85,55,279.6,55c4,0,6.57-1.88,8.09-5.45Z"/><path class="cls-6" d="M324.68,45.31H303c0.29,5.45,3,9.73,8.33,9.73,4.34,0,6.57-2,8.21-5.63l4.34,1.88c-2.76,5.75-6.45,8.21-12.55,8.21-9,0-13.37-7.33-13.37-15.24S302.34,29,311.31,29c8.73,0,13.37,6.68,13.37,14v2.29Zm-21.4-4.46h16.24c-0.88-4.22-3.46-7.39-8.21-7.39C306.74,33.47,304.16,36.58,303.28,40.86Z"/><path class="cls-6" d="M339.63,18l11,28.9,11-28.9h6.33V59h-5.16V29.13L352.41,55.28h-3.63L338.46,29.13V59H333.3V18h6.33Z"/><path class="cls-6" d="M382.89,18V54.1h18.64V59h-23.8V18h5.16Z"/></svg>